Coordinates
version=1
nRows=5
nColumns=40
inDegrees=yes

Units are S.I. units (second, meters, Newtons, ...)
Angles are in degrees.

endheader
time	pelvis_tilt	pelvis_list	pelvis_rotation	pelvis_tx	pelvis_ty	pelvis_tz	hip_flexion_r	hip_adduction_r	hip_rotation_r	knee_angle_r	knee_angle_r_beta	ankle_angle_r	subtalar_angle_r	mtp_angle_r	hip_flexion_l	hip_adduction_l	hip_rotation_l	knee_angle_l	knee_angle_l_beta	ankle_angle_l	subtalar_angle_l	mtp_angle_l	lumbar_extension	lumbar_bending	lumbar_rotation	arm_flex_r	arm_add_r	arm_rot_r	elbow_flex_r	pro_sup_r	wrist_flex_r	wrist_dev_r	arm_flex_l	arm_add_l	arm_rot_l	elbow_flex_l	pro_sup_l	wrist_flex_l	wrist_dev_l
     12.67000000	     -0.58827540	     -7.22096736	     -2.93791079	      1.03209009	      0.92415172	      0.56432241	      9.29301700	      9.12876799	     -8.35436394	     22.06924304	     22.06924304	     14.81362305	     -6.78664317	     -2.14715330	     21.34469512	    -17.85890394	      2.40103589	     63.57767274	     63.57767274	     -3.06215179	    -18.97740143	     -6.56973738	     -9.38958932	      6.45493421	      1.21965302	     15.27492768	    -17.76035764	     -6.87108432	     56.64526670	     37.50940354	      0.00000000	      0.00000000	      5.25330478	    -11.05472936	      1.96422320	     38.40973122	     35.87164530	      0.00000000	      0.00000000
     12.69307143	     -0.44730139	     -7.19172150	     -2.20689302	      1.03057848	      0.92282323	      0.56588957	      9.42346043	      9.20780189	     -8.54578429	     22.90475909	     22.90475909	     15.42081517	     -7.72071998	     -1.74610036	     23.75069405	    -17.72385784	      3.46524688	     66.69248952	     66.69248952	     -4.02623634	    -19.10846716	     -1.07836063	     -9.41463003	      6.26726349	      1.30802222	     17.78745922	    -17.78814817	     -6.64014420	     58.81115851	     37.99142949	      0.00000000	      0.00000000	      3.01369910	    -10.51536188	      3.72319939	     36.46882479	     36.40603700	      0.00000000	      0.00000000
     12.71614286	     -0.26386682	     -7.16498470	     -1.44597183	      1.02899521	      0.92147634	      0.56742269	      9.48393334	      9.30925537	     -8.69710132	     23.70396357	     23.70396357	     16.03754678	     -8.72344329	     -1.26870223	     26.04593436	    -17.52500707	      4.44273076	     69.50317730	     69.50317730	     -4.32141440	    -19.18812188	      5.30048087	     -9.52375655	      6.09125096	      1.28286823	     20.70383431	    -17.75724583	     -6.35942266	     60.71762157	     38.38974138	      0.00000000	      0.00000000	      0.74796224	    -10.04886594	      5.66002439	     34.33097374	     36.78809327	      0.00000000	      0.00000000
     12.73921429	     -0.10973664	     -7.16020295	     -0.66198488	      1.02736678	      0.92011553	      0.56886378	      9.55546942	      9.41092978	     -8.97566363	     24.47295487	     24.47295487	     16.65841665	     -9.52677364	     -0.79189378	     28.17494937	    -17.33745283	      5.26110276	     71.75416097	     71.75416097	     -4.15808363	    -19.30630893	     11.24906305	     -9.61898016	      5.94476802	      1.36313941	     23.69325937	    -17.76042267	     -6.17950604	     62.39208230	     38.79398675	      0.00000000	      0.00000000	     -1.47532019	     -9.67421760	      7.74883808	     32.45524290	     37.12464933	      0.00000000	      0.00000000
     12.76228571	      0.01906658	     -7.19978397	      0.16626135	      1.02574371	      0.91882483	      0.57019765	      9.55764614	      9.57359620	     -9.29544651	     25.03081106	     25.03081106	     17.10636906	    -10.35702707	     -0.68373620	     29.95261080	    -17.33322770	      5.78174200	     73.13818919	     73.13818919	     -4.43287981	    -19.44501389	     13.23412535	     -9.72607117	      5.85158638	      1.27281680	     26.76317863	    -17.52612650	     -6.34035311	     64.19428001	     38.86831203	      0.00000000	      0.00000000	     -3.78322383	     -9.22432687	      8.63899429	     31.05089177	     37.14905182	      0.00000000	      0.00000000
